<svg width="80" height="80" viewBox="0 0 80 80" fill="none" xmlns="http://www.w3.org/2000/svg">
<path d="M66.5 70C67.5 70 68.3333 69.6667 69 69C69.6667 68.3333 70 67.5 70 66.5V53C70 52.2222 69.75 51.5411 69.25 50.9567C68.75 50.3744 68.1111 50 67.3333 49.8333L55.8333 47.5C55.0556 47.3889 54.2633 47.4578 53.4567 47.7067C52.6522 47.9578 52 48.3333 51.5 48.8333L43.6667 56.6667C39.4444 54.1111 35.5833 51.0833 32.0833 47.5833C28.5833 44.0833 25.6667 40.3333 23.3333 36.3333L31.3333 28.1667C31.8333 27.6667 32.1533 27.0967 32.2933 26.4567C32.4311 25.8189 32.4444 25.1111 32.3333 24.3333L30.1667 12.6667C30.0556 11.8889 29.6944 11.25 29.0833 10.75C28.4722 10.25 27.7778 10 27 10H13.5C12.5 10 11.6667 10.3333 11 11C10.3333 11.6667 10 12.5 10 13.5C10 20.6667 11.5978 27.6522 14.7933 34.4567C17.9867 41.2633 22.2089 47.2911 27.46 52.54C32.7089 57.7911 38.7356 62.0133 45.54 65.2067C52.3467 68.4022 59.3333 70 66.5 70Z" fill="#0D7637"/>
</svg>
