<svg width="24" height="25" viewBox="0 0 24 25" fill="none" xmlns="http://www.w3.org/2000/svg">
<path d="M19.95 21.5C20.25 21.5 20.5 21.4 20.7 21.2C20.9 21 21 20.75 21 20.45V16.4C21 16.1667 20.925 15.9623 20.775 15.787C20.625 15.6123 20.4333 15.5 20.2 15.45L16.75 14.75C16.5167 14.7167 16.279 14.7373 16.037 14.812C15.7957 14.8873 15.6 15 15.45 15.15L13.1 17.5C11.8333 16.7333 10.675 15.825 9.625 14.775C8.575 13.725 7.7 12.6 7 11.4L9.4 8.95C9.55 8.8 9.646 8.629 9.688 8.437C9.72933 8.24567 9.73333 8.03333 9.7 7.8L9.05 4.3C9.01667 4.06667 8.90833 3.875 8.725 3.725C8.54167 3.575 8.33333 3.5 8.1 3.5H4.05C3.75 3.5 3.5 3.6 3.3 3.8C3.1 4 3 4.25 3 4.55C3 6.7 3.47933 8.79567 4.438 10.837C5.396 12.879 6.66267 14.6873 8.238 16.262C9.81267 17.8373 11.6207 19.104 13.662 20.062C15.704 21.0207 17.8 21.5 19.95 21.5Z" fill="#FBFBFB"/>
</svg>
