<svg width="88" height="88" viewBox="0 0 88 88" fill="none" xmlns="http://www.w3.org/2000/svg">
<path fill-rule="evenodd" clip-rule="evenodd" d="M43.7984 30.288C33.9915 30.288 25.9859 38.2827 25.9859 48.1762C25.9859 58.0696 33.9915 66.0644 43.7984 66.0644C53.6053 66.0644 61.611 58.0696 61.611 48.1762C61.611 38.2827 53.6053 30.288 43.7984 30.288ZM14.6779 39.1821C14.3777 36.1841 12.2763 33.5858 9.27415 32.7863C5.3714 31.787 1.26851 34.0855 0.26781 37.9829C-0.832964 41.9802 1.56873 45.9776 5.47147 47.0769C8.47358 47.8764 11.5758 46.6771 13.377 44.2787L21.7829 46.5772C21.883 44.7784 22.1832 42.9796 22.6836 41.3806L14.6779 39.1821ZM29.6885 64.6653C28.3876 63.6659 27.2868 62.4667 26.2861 61.1676L16.0789 71.4608C13.5772 70.3615 10.475 70.7613 8.37351 72.8599C5.67161 75.5581 5.67161 79.9552 8.37351 82.6534C11.0754 85.3516 15.3784 85.3516 18.0803 82.6534C20.1818 80.5548 20.5821 77.4568 19.4813 74.9585L29.6885 64.6653ZM76.6215 73.1597C74.0197 70.5614 70.217 69.9618 67.0148 71.3609L59.2093 63.566C57.7082 65.065 56.007 66.2642 54.2058 67.2636L62.7117 75.758C61.3107 78.9559 61.9112 82.7533 64.513 85.4516C67.9154 88.8493 73.3192 88.8493 76.7216 85.4516C79.9238 82.0538 79.9238 76.5574 76.6215 73.1597ZM86.8287 20.4944C84.427 16.3971 79.2234 14.998 75.0204 17.2965C71.8181 19.0953 70.3171 22.693 70.8174 26.1907L60.0098 32.4865C61.4108 33.9855 62.6117 35.6844 63.5123 37.5831L73.9196 31.5871C76.6215 33.7857 80.4242 34.1854 83.6264 32.3866C87.8294 29.8882 89.2304 24.5917 86.8287 20.4944Z" fill="#5A93F9"/>
<path fill-rule="evenodd" clip-rule="evenodd" d="M37.9943 26.0908C35.9929 26.5905 34.0916 27.4899 32.3904 28.4893L28.2875 17.1967C24.785 17.0968 21.5828 14.9982 20.2819 11.5005C18.6807 7.10338 20.9824 2.20661 25.4855 0.507728C29.9887 -1.09122 34.8921 1.20727 36.4933 5.7043C37.7942 9.20199 36.6934 12.8996 34.0916 15.198L37.9943 26.0908Z" fill="#66F39E"/>
</svg>
